<svg xmlns="http://www.w3.org/2000/svg" version="1.1" xmlns:xlink="http://www.w3.org/1999/xlink" xmlns:svgjs="http://svgjs.dev/svgjs" width="100%" height="100%" viewBox="0 0 1000 600"><rect width="1000" height="600" x="0" y="0" fill="#2b3252"/><g><rect width="333.3333333333333" height="333.3333333333333" rx="13.333333333333334" ry="13.333333333333334" y="307.9407994391062" fill="#fad744" transform="matrix(0.43749344899092557,0,0,0.43749344899092557,0,92.36234686929687)" x="285.7186279296875"/><path d="M460.8466165990802 474.6359086067503L460.8466165990802 474.6359086067503Q460.8466165990802 491.1319262842623 455.6133971979385 504.64159593394885Q450.3801777967967 518.1512655836354 440.88074692733295 527.7929035020431Q431.35287464808033 537.4061000106624 418.0422948669155 542.6962022313817Q404.73171508575064 547.9578630423123 388.5485529159156 547.9578630423123L388.5485529159156 547.9578630423123L333.65663202350504 547.9578630423123L333.65663202350504 401.22862994182196L388.5485529159156 401.22862994182196Q404.73171508575064 401.22862994182196 418.0422948669155 406.51873216254137Q431.35287464808033 411.78039297347186 440.88074692733295 421.4504723016686Q450.3801777967967 431.12055162986525 455.6133971979385 444.6586626893406Q460.8466165990802 458.16833233902713 460.8466165990802 474.6359086067503ZM440.45412578050076 474.6359086067503L440.45412578050076 474.6359086067503Q440.45412578050076 461.1262389570638 436.7851839177438 450.48915169604743Q433.08780064519794 439.8236230252423 426.31874511546033 432.4572978899395Q419.5781309955114 425.0909727546367 409.9364930771036 421.1944996135693Q400.3232965684845 417.29802647250176 388.5485529159156 417.29802647250176L388.5485529159156 417.29802647250176L353.6225016952523 417.29802647250176L353.6225016952523 531.8884665116325L388.5485529159156 531.8884665116325Q400.3232965684845 531.8884665116325 409.9364930771036 527.991993370565Q419.5781309955114 524.0955202294974 426.31874511546033 516.7860779137723Q433.08780064519794 509.44819418825836 436.7851839177438 498.811106927242Q440.45412578050076 488.17401966622566 440.45412578050076 474.6359086067503ZM567.8432002245976 414.7382995915085L563.0081605604993 424.1808476413947Q562.0980354472572 425.71668376999065 561.0741446948599 426.4846018342886Q560.0502539424626 427.25251989858657 558.4006521747115 427.25251989858657L558.4006521747115 427.25251989858657Q556.6657261775938 427.25251989858657 554.3619719846998 425.4891524916801Q552.058217791806 423.7542264945625 548.531482977993 421.6495621701903Q545.0047481641801 419.57333925560687 540.0275014511377 417.80997184870046Q535.0786961478841 416.0750458515828 527.9967851104695 416.0750458515828L527.9967851104695 416.0750458515828Q521.3414952198871 416.0750458515828 516.2220414579006 417.86685466827805Q511.10258769591417 419.6586634849733 507.68961852125653 422.7303357421652Q504.24820793681 425.8020079993571 502.5132819396923 429.9544538285239Q500.7783559425747 434.1068996576907 500.7783559425747 438.9134979120002L500.7783559425747 438.9134979120002Q500.7783559425747 445.056842426384 503.793145380189 449.09552261639556Q506.80793481780324 453.13420280640713 511.78518153084565 456.0067851950773Q516.7339868340993 458.8793675837475 523.0479798072158 460.98403190811973Q529.3335313705438 463.08869623249194 535.9319384415485 465.3355676058082Q542.5303455125534 467.5824389791245 548.84433848567 470.3981385482171Q555.1298900489978 473.21383811730965 560.1071367620402 477.5084909954205Q565.0559420652938 481.8031438735314 568.0991729126969 488.0602540270704Q571.1139623503111 494.31736418060945 571.1139623503111 503.4186153130299L571.1139623503111 503.4186153130299Q571.1139623503111 513.031811821649 567.8432002245976 521.4789105289266Q564.5439966890951 529.9260092362042 558.2584451257674 536.1831193897433Q551.9728935624395 542.4402295432824 542.7863182006527 546.0238471766729Q533.6281842486546 549.6074648100634 521.9672062352411 549.6074648100634L521.9672062352411 549.6074648100634Q507.7180599310453 549.6074648100634 496.00019909805405 544.4311282284993Q484.2823382650628 539.2547916469352 475.97744660672913 530.437954612403L475.97744660672913 530.437954612403L481.7226113840695 521.0238479723056Q482.5474122679451 519.9146329905418 483.7135100692865 519.1467149262439Q484.90804928041666 518.3787968619458 486.33011976985733 518.3787968619458L486.33011976985733 518.3787968619458Q488.4916669138072 518.3787968619458 491.25048366332214 520.6825510548398Q494.0093004128371 522.9863052477338 498.16174624200386 525.7451219972486Q502.3141920711707 528.5039387467637 508.2015638974551 530.8076929396575Q514.0889357237396 533.1114471325513 522.5644758408062 533.1114471325513L522.5644758408062 533.1114471325513Q529.6463868782207 533.1114471325513 535.1640203772506 531.1774312669121Q540.7100952860693 529.2149739914839 544.5496856075591 525.688239177671Q548.389275929049 522.1615043638581 550.4370574338436 517.2411404703934Q552.4848389386382 512.3207765769286 552.4848389386382 506.2911977017L552.4848389386382 506.2911977017Q552.4848389386382 499.63590781111765 549.441608091235 495.3696963427956Q546.4268186536208 491.1319262842623 541.5064547601561 488.2593438955921Q536.6145322764801 485.3867615069219 530.3005393033634 483.39586282170495Q524.0149877400356 481.404964136488 517.4165806690307 479.3002998121158Q510.78973218823717 477.1956354877436 504.5041806249093 474.4368187382286Q498.2186290615815 471.6780019887137 493.2982651681167 467.26958347144756Q488.37790127465195 462.8611649541814 485.36311183703765 456.2627578831766Q482.3483223994234 449.66435081217185 482.3483223994234 439.93738866439753L482.3483223994234 439.93738866439753Q482.3483223994234 432.1444423822626 485.36311183703765 424.891882886115Q488.37790127465195 417.61088198017876 494.1230660519923 411.97948284199356Q499.8397894195439 406.34808370380847 508.28688812682157 402.96355593893963Q516.7339868340993 399.6074695838596 527.6839296027925 399.6074695838596L527.6839296027925 399.6074695838596Q539.9706186315601 399.6074695838596 550.1242019261666 403.4755013151383Q560.2493438109843 407.37197445620575 567.8432002245976 414.7382995915085L567.8432002245976 414.7382995915085Z " fill="#2b3252" transform="matrix(0.43749344899092557,0,0,0.43749344899092557,0,92.36234686929687)"/><path d="M804.9854882148006 462.1265926549369L804.9854882148006 462.1265926549369Q804.9854882148006 475.4334148719494 800.7640135804379 486.3312434117442Q796.5425389460754 497.2290719515389 788.8796447728303 505.0066801094135Q781.1938078026592 512.7613454703621 770.4565788413456 517.0287056985765Q759.719349880032 521.2731231298651 746.6648984292043 521.2731231298651L746.6648984292043 521.2731231298651L702.3853003622489 521.2731231298651L702.3853003622489 402.91123378923123L746.6648984292043 402.91123378923123Q759.719349880032 402.91123378923123 770.4565788413456 407.17859401744556Q781.1938078026592 411.42301144873403 788.8796447728303 419.2235624035345Q796.5425389460754 427.02411335833494 800.7640135804379 437.9448846950556Q804.9854882148006 448.8427132348503 804.9854882148006 462.1265926549369ZM788.535502818942 462.1265926549369L788.535502818942 462.1265926549369Q788.535502818942 451.2287641151422 785.575882015503 442.6481580648617Q782.5933184151381 434.0446092176553 777.1329327467779 428.1024248138515Q771.6954898753434 422.16024041004755 763.9178817174688 419.01707723120154Q756.1632163565201 415.8739140523555 746.6648984292043 415.8739140523555L746.6648984292043 415.8739140523555L718.4911438042192 415.8739140523555L718.4911438042192 508.31044286674074L746.6648984292043 508.31044286674074Q756.1632163565201 508.31044286674074 763.9178817174688 505.1672796878947Q771.6954898753434 502.0241165090486 777.1329327467779 496.1278176990965Q782.5933184151381 490.20857609221855 785.575882015503 481.62797004193806Q788.535502818942 473.04736399165756 788.535502818942 462.1265926549369ZM885.9276757693181 467.7475779017784L885.9276757693181 521.2731231298651L879.3889786454413 521.2731231298651Q877.2552985313341 521.2731231298651 875.9246163096329 520.6077820190144Q874.5939340879315 519.9424409081637 874.1809637432657 517.8087607940565L874.1809637432657 517.8087607940565L872.5290823646021 510.031152636182Q869.2253196072747 513.0137162365469 866.1050992253547 515.3768243199129Q862.9619360465085 517.7169896063531 859.4975737107002 519.3229853911648Q856.0102685779659 520.9519239729027 852.0870503036397 521.7778646622344Q848.1638320293137 522.6038053515663 843.3917302687298 522.6038053515663L843.3917302687298 522.6038053515663Q838.5049145235166 522.6038053515663 834.2604970922282 521.2272375360133Q829.9931368640139 519.8736125173862 826.8729164820936 517.1434196832059Q823.7297533032474 514.4132268490258 821.871386752251 510.237637808515Q820.0130202012544 506.08499156493 820.0130202012544 500.372235130385L820.0130202012544 500.372235130385Q820.0130202012544 495.41659099439414 822.7432130354346 490.8280316092174Q825.4504630726888 486.26241502096656 831.5303042580479 482.7062814974546Q837.6101454434072 479.15014797394264 847.4296625276854 476.87881107828014Q857.2491796119637 474.60747418261764 871.4737137060115 474.28627502565524L871.4737137060115 474.28627502565524L871.4737137060115 467.7475779017784Q871.4737137060115 457.9968892082779 867.2981246655006 453.0183022753611Q863.1225356249897 448.0167725455185 854.9548999193753 448.0167725455185L854.9548999193753 448.0167725455185Q849.5862854387185 448.0167725455185 845.8924951336512 449.3703975641456Q842.2216476255098 450.7469653796986 839.5373403851813 452.4217895552881Q836.853033144853 454.1195565278035 834.9258382030787 455.49612434335654Q832.9757004643786 456.8497493619837 831.0714483195304 456.8497493619837L831.0714483195304 456.8497493619837Q829.5801665193478 456.8497493619837 828.4789122669054 456.06969426650363Q827.3547152175372 455.28963917102357 826.6893741066865 454.1195565278035L826.6893741066865 454.1195565278035L824.0509524602098 449.4162831579974Q831.0026199287527 442.71698645563936 839.0096560558861 439.4132236983121Q847.0166921830194 436.1094609409849 856.7673808765201 436.1094609409849L856.7673808765201 436.1094609409849Q863.7878767358404 436.1094609409849 869.2253196072747 438.4266834304991Q874.6857052756352 440.74390592001333 878.4024383776284 444.87360936667244Q882.1191714796214 449.0033128133315 884.0234236244698 454.8766688263577Q885.9276757693181 460.72708204245805 885.9276757693181 467.7475779017784L885.9276757693181 467.7475779017784ZM847.7508616846478 512.2795467349185L847.7508616846478 512.2795467349185Q851.6511371620479 512.2795467349185 854.8631287316716 511.4765488425127Q858.0751203012953 510.69649374703266 860.9429699170307 509.251097540702Q863.7878767358404 507.8057013343713 866.3804127884653 505.74084961104177Q868.995891638016 503.67599788771224 871.4737137060115 501.0375762412356L871.4737137060115 501.0375762412356L871.4737137060115 483.601050577564Q861.310054667845 483.9451925314523 854.1977876208211 485.2299891593018Q847.108463370723 486.4918429902254 842.6346179701757 488.5566947135549Q838.1837153665542 490.62154643688444 836.1647492370764 493.4435104587681Q834.1228403106729 496.242531683726 834.1228403106729 499.7068940195344L834.1228403106729 499.7068940195344Q834.1228403106729 503.0106567768616 835.2011517661895 505.41965045407943Q836.279463221706 507.8057013343713 838.0919441788508 509.3428687284055Q839.9044251359956 510.85709332551386 842.382247203991 511.5683200302162Q844.8600692719865 512.2795467349185 847.7508616846478 512.2795467349185ZM933.5798649843784 522.6038053515663L933.5798649843784 522.6038053515663Q923.6685767123968 522.6038053515663 918.3458478255918 517.0516484955024Q913.000176141861 511.52243443636445 913.000176141861 501.1293474289392L913.000176141861 501.1293474289392L913.000176141861 449.92102469036683L902.9282882913978 449.92102469036683Q901.6205488666226 449.92102469036683 900.7028369895872 449.1180267979609Q899.7851251125519 448.33797170248084 899.7851251125519 446.6860903238172L899.7851251125519 446.6860903238172L899.7851251125519 440.8356771077169L913.5049176742302 439.09202454134976L916.900451619261 413.23549240587886Q917.0610511977422 411.9965813718811 917.9558202778517 411.21652627640105Q918.873532154887 410.43647118092105 920.273042767366 410.43647118092105L920.273042767366 410.43647118092105L927.7065089713524 410.43647118092105L927.7065089713524 439.25262411983095L951.6587889619748 439.25262411983095L951.6587889619748 449.92102469036683L927.7065089713524 449.92102469036683L927.7065089713524 500.1198643642003Q927.7065089713524 505.41965045407943 930.2761022270513 507.9663009128525Q932.8227526858243 510.53589416855147 936.8836277417058 510.53589416855147L936.8836277417058 510.53589416855147Q939.2008502312201 510.53589416855147 940.8756744068094 509.9164386515526Q942.573441379325 509.2969831345537 943.8123524133225 508.5628136329255Q945.0512634473203 507.8057013343713 945.923089730504 507.1862458173724Q946.7949160136875 506.5667903003736 947.4602571245382 506.5667903003736L947.4602571245382 506.5667903003736Q948.6073969708323 506.5667903003736 949.5251088478676 507.9663009128525L949.5251088478676 507.9663009128525L953.8154118730079 514.986796772173Q950.0069075833112 518.5429302956849 944.6382931026544 520.5618964251626Q939.2696786219976 522.6038053515663 933.5798649843784 522.6038053515663ZM1031.293237091717 467.7475779017784L1031.293237091717 521.2731231298651L1024.7545399678402 521.2731231298651Q1022.620859853733 521.2731231298651 1021.2901776320318 520.6077820190144Q1019.9594954103304 519.9424409081637 1019.5465250656646 517.8087607940565L1019.5465250656646 517.8087607940565L1017.894643687001 510.031152636182Q1014.5908809296736 513.0137162365469 1011.4706605477536 515.3768243199129Q1008.3274973689074 517.7169896063531 1004.8631350330991 519.3229853911648Q1001.3758299003648 520.9519239729027 997.4526116260386 521.7778646622344Q993.5293933517125 522.6038053515663 988.7572915911287 522.6038053515663L988.7572915911287 522.6038053515663Q983.8704758459155 522.6038053515663 979.6260584146271 521.2272375360133Q975.3586981864125 519.8736125173862 972.2384778044925 517.1434196832059Q969.0953146256463 514.4132268490258 967.2369480746497 510.237637808515Q965.3785815236533 506.08499156493 965.3785815236533 500.372235130385L965.3785815236533 500.372235130385Q965.3785815236533 495.41659099439414 968.1087743578335 490.8280316092174Q970.8160243950877 486.26241502096656 976.8958655804468 482.7062814974546Q982.9757067658061 479.15014797394264 992.7952238500843 476.87881107828014Q1002.6147409343623 474.60747418261764 1016.8392750284104 474.28627502565524L1016.8392750284104 474.28627502565524L1016.8392750284104 467.7475779017784Q1016.8392750284104 457.9968892082779 1012.6636859878995 453.0183022753611Q1008.4880969473886 448.0167725455185 1000.3204612417742 448.0167725455185L1000.3204612417742 448.0167725455185Q994.9518467611172 448.0167725455185 991.2580564560501 449.3703975641456Q987.5872089479087 450.7469653796986 984.9029017075802 452.4217895552881Q982.2185944672519 454.1195565278035 980.2913995254776 455.49612434335654Q978.3412617867775 456.8497493619837 976.4370096419291 456.8497493619837L976.4370096419291 456.8497493619837Q974.9457278417467 456.8497493619837 973.8444735893042 456.06969426650363Q972.7202765399361 455.28963917102357 972.0549354290854 454.1195565278035L972.0549354290854 454.1195565278035L969.4165137826087 449.4162831579974Q976.3681812511516 442.71698645563936 984.3752173782848 439.4132236983121Q992.3822535054182 436.1094609409849 1002.132942198919 436.1094609409849L1002.132942198919 436.1094609409849Q1009.1534380582393 436.1094609409849 1014.5908809296736 438.4266834304991Q1020.0512665980341 440.74390592001333 1023.7679997000271 444.87360936667244Q1027.4847328020203 449.0033128133315 1029.3889849468687 454.8766688263577Q1031.293237091717 460.72708204245805 1031.293237091717 467.7475779017784L1031.293237091717 467.7475779017784ZM993.1164230070465 512.2795467349185L993.1164230070465 512.2795467349185Q997.0166984844468 512.2795467349185 1000.2286900540705 511.4765488425127Q1003.4406816236942 510.69649374703266 1006.3085312394296 509.251097540702Q1009.1534380582393 507.8057013343713 1011.7459741108642 505.74084961104177Q1014.3614529604149 503.67599788771224 1016.8392750284104 501.0375762412356L1016.8392750284104 501.0375762412356L1016.8392750284104 483.601050577564Q1006.6756159902438 483.9451925314523 999.5633489432198 485.2299891593018Q992.4740246931219 486.4918429902254 988.0001792925746 488.5566947135549Q983.5492766889531 490.62154643688444 981.5303105594753 493.4435104587681Q979.4884016330718 496.242531683726 979.4884016330718 499.7068940195344L979.4884016330718 499.7068940195344Q979.4884016330718 503.0106567768616 980.5667130885881 505.41965045407943Q981.6450245441047 507.8057013343713 983.4575055012497 509.3428687284055Q985.2699864583944 510.85709332551386 987.7478085263897 511.5683200302162Q990.2256305943852 512.2795467349185 993.1164230070465 512.2795467349185ZM1063.5737523664354 521.2731231298651L1054.0754344391196 521.2731231298651L1054.0754344391196 399.60747103190397L1068.8735384563145 399.60747103190397L1068.8735384563145 449.6686539241821Q1074.0586105615641 443.6346983326747 1080.803792857774 439.9638508245333Q1087.5260323570578 436.29300331639195 1096.1984095950418 436.29300331639195L1096.1984095950418 436.29300331639195Q1103.471276220547 436.29300331639195 1109.3446322335733 439.0002533536462Q1115.1950454496737 441.7304461878264 1119.3247488963327 447.1449462623349Q1123.4544523429918 452.55944633684345 1125.6799036448024 460.5205968701251Q1127.928297743539 468.5046902003326 1127.928297743539 478.8977772077579L1127.928297743539 478.8977772077579Q1127.928297743539 488.143724368889 1125.4504756755437 496.1278176990965Q1122.9726536075482 504.08896823237814 1118.2923230346678 509.9164386515526Q1113.6349352587133 515.7439090707271 1106.8897529625037 519.0935574219061Q1100.1675134632196 522.4202629761592 1091.7475069914206 522.4202629761592L1091.7475069914206 522.4202629761592Q1083.6486996765834 522.4202629761592 1077.9818288358902 519.300042594239Q1072.3379007921228 516.156879415393 1068.1164261577603 510.53589416855147L1068.1164261577603 510.53589416855147L1067.382256656132 518.1299599510189Q1066.7169155452814 521.2731231298651 1063.5737523664354 521.2731231298651L1063.5737523664354 521.2731231298651ZM1091.4033650375322 448.0167725455185L1091.4033650375322 448.0167725455185Q1084.2222695997307 448.0167725455185 1078.807769525222 451.3205353028457Q1073.4162122476394 454.624298060173 1068.8735384563145 460.65825365168035L1068.8735384563145 460.65825365168035L1068.8735384563145 501.1293474289392Q1072.8196995275664 506.5667903003736 1077.660629678928 508.79224160218433Q1082.5015598302894 511.0406357009209 1088.4437442340932 511.0406357009209L1088.4437442340932 511.0406357009209Q1100.1675134632196 511.0406357009209 1106.4538398209118 502.68945761989926Q1112.7172233816782 494.3382795388776 1112.7172233816782 478.8977772077579L1112.7172233816782 478.8977772077579Q1112.7172233816782 470.73014150214334 1111.2718271753474 464.8567854891171Q1109.8264309690167 459.0063722730168 1107.0962381348365 455.24375357717184Q1104.3889880975823 451.4811348813269 1100.4198842294045 449.7374823149598Q1096.4507803612266 448.0167725455185 1091.4033650375322 448.0167725455185ZM1207.3792034978742 467.7475779017784L1207.3792034978742 521.2731231298651L1200.8405063739972 521.2731231298651Q1198.70682625989 521.2731231298651 1197.3761440381888 520.6077820190144Q1196.0684046134133 519.9424409081637 1195.6554342687475 517.8087607940565L1195.6554342687475 517.8087607940565L1194.003552890084 510.031152636182Q1190.6997901327566 513.0137162365469 1187.5566269539106 515.3768243199129Q1184.4134637750647 517.7169896063531 1180.949101439256 519.3229853911648Q1177.4847391034477 520.9519239729027 1173.5615208291215 521.7778646622344Q1169.6383025547955 522.6038053515663 1164.8432579972857 522.6038053515663L1164.8432579972857 522.6038053515663Q1159.9564422520725 522.6038053515663 1155.712024820784 521.2272375360133Q1151.4676073894957 519.8736125173862 1148.3244442106495 517.1434196832059Q1145.1812810318036 514.4132268490258 1143.322914480807 510.237637808515Q1141.4645479298104 506.08499156493 1141.4645479298104 500.372235130385L1141.4645479298104 500.372235130385Q1141.4645479298104 495.41659099439414 1144.1947407639905 490.8280316092174Q1146.9249335981706 486.26241502096656 1152.981831986604 482.7062814974546Q1159.061673171963 479.15014797394264 1168.8811902562413 476.87881107828014Q1178.7236501374455 474.60747418261764 1192.9252414345674 474.28627502565524L1192.9252414345674 474.28627502565524L1192.9252414345674 467.7475779017784Q1192.9252414345674 457.9968892082779 1188.7496523940565 453.0183022753611Q1184.5740633535459 448.0167725455185 1176.4064276479312 448.0167725455185L1176.4064276479312 448.0167725455185Q1171.0378131672744 448.0167725455185 1167.366965659133 449.3703975641456Q1163.6731753540657 450.7469653796986 1160.9888681137372 452.4217895552881Q1158.304560873409 454.1195565278035 1156.3773659316346 455.49612434335654Q1154.4272281929345 456.8497493619837 1152.5229760480863 456.8497493619837L1152.5229760480863 456.8497493619837Q1151.0546370448296 456.8497493619837 1149.9304399954615 456.06969426650363Q1148.806242946093 455.28963917102357 1148.1638446321683 454.1195565278035L1148.1638446321683 454.1195565278035L1145.502480188766 449.4162831579974Q1152.4541476573086 442.71698645563936 1160.461183784442 439.4132236983121Q1168.4682199115755 436.1094609409849 1178.218908605076 436.1094609409849L1178.218908605076 436.1094609409849Q1185.2394044643963 436.1094609409849 1190.6997901327566 438.4266834304991Q1196.137233004191 440.74390592001333 1199.8539661061843 444.87360936667244Q1203.5706992081773 449.0033128133315 1205.4749513530257 454.8766688263577Q1207.3792034978742 460.72708204245805 1207.3792034978742 467.7475779017784L1207.3792034978742 467.7475779017784ZM1169.2253322101296 512.2795467349185L1169.2253322101296 512.2795467349185Q1173.102664890604 512.2795467349185 1176.3146564602278 511.4765488425127Q1179.5495908267771 510.69649374703266 1182.3944976455869 509.251097540702Q1185.2394044643963 507.8057013343713 1187.8319405170212 505.74084961104177Q1190.447419366572 503.67599788771224 1192.9252414345674 501.0375762412356L1192.9252414345674 501.0375762412356L1192.9252414345674 483.601050577564Q1182.7615823964009 483.9451925314523 1175.649315349377 485.2299891593018Q1168.559991099279 486.4918429902254 1164.0861456987316 488.5566947135549Q1159.6352430951101 490.62154643688444 1157.6162769656323 493.4435104587681Q1155.5973108361547 496.242531683726 1155.5973108361547 499.7068940195344L1155.5973108361547 499.7068940195344Q1155.5973108361547 503.0106567768616 1156.6526794947454 505.41965045407943Q1157.730990950262 507.8057013343713 1159.5434719074067 509.3428687284055Q1161.3788956614774 510.85709332551386 1163.8567177294728 511.5683200302162Q1166.334539797468 512.2795467349185 1169.2253322101296 512.2795467349185ZM1280.8879248484054 446.0207492129666L1277.584162091078 451.38936369362335Q1276.597621823265 453.22478744769404 1274.5327700999355 453.22478744769404L1274.5327700999355 453.22478744769404Q1273.2938590659378 453.22478744769404 1271.7108060780517 452.3070755706587Q1270.1506958870916 451.38936369362335 1267.8793589914292 450.28810944118095Q1265.6080220957667 449.1639123918127 1262.4648589169205 448.2232577178514Q1259.3216957380746 447.2596602469643 1255.0313927129343 447.2596602469643L1255.0313927129343 447.2596602469643Q1251.3146596109414 447.2596602469643 1248.3320960105764 448.2232577178514Q1245.3724752071373 449.1639123918127 1243.261737889956 450.8157937704763Q1241.1510005727748 452.4676751491399 1240.0497463203324 454.67018365402475Q1238.9255492709642 456.8497493619837 1238.9255492709642 459.4193426176827L1238.9255492709642 459.4193426176827Q1238.9255492709642 462.6313341873064 1240.7839158219608 464.7879570983394Q1242.6422823729572 466.9216372124466 1245.6936743640997 468.5046902003326Q1248.7450663552422 470.0648003912927 1252.6453418326425 471.25782583143865Q1256.522674513117 472.45085127158455 1260.6064923659242 473.82741908713757Q1264.6903102187314 475.1810441057647 1268.5676428992058 476.83292548442836Q1272.467918376606 478.484806863092 1275.5193103677484 480.9626289310874Q1278.570702358891 483.4404509990829 1280.4290689098875 487.0424701164466Q1282.2874354608841 490.62154643688444 1282.2874354608841 495.66896176057884L1282.2874354608841 495.66896176057884Q1282.2874354608841 501.4505465859015 1280.2225837375547 506.36030512804064Q1278.157732014225 511.27006367017975 1274.1197997552697 514.8720827875435Q1270.0589246993882 518.4741019049072 1264.2085114832878 520.5389536282368Q1258.3351554702617 522.6038053515663 1250.6493185000907 522.6038053515663L1250.6493185000907 522.6038053515663Q1241.908112871329 522.6038053515663 1234.795845824305 519.7359557358309Q1227.6835787772811 516.8910489170212 1222.7279346412902 512.4401463133997L1222.7279346412902 512.4401463133997L1226.2152397740244 506.8191610665583Q1226.8576380879492 505.74084961104177 1227.7753499649846 505.1672796878947Q1228.69306184202 504.5937097647476 1230.1614008452766 504.5937097647476L1230.1614008452766 504.5937097647476Q1231.652682645459 504.5937097647476 1233.3045640241226 505.74084961104177Q1234.9564454027861 506.9109322542618 1237.3195534861522 508.31044286674074Q1239.6597187725924 509.7099534792197 1243.0093671237714 510.85709332551386Q1246.3590154749504 512.0271759687339 1251.4064307986448 512.0271759687339L1251.4064307986448 512.0271759687339Q1255.696733823785 512.0271759687339 1258.9087253934088 510.9029789193656Q1262.1436597599584 509.8017246669232 1264.2773398740655 507.89747252207485Q1266.4339627850986 505.9932203772265 1267.4663886467633 503.51539830923105Q1268.498814508428 501.0375762412356 1268.498814508428 498.2385550162778L1268.498814508428 498.2385550162778Q1268.498814508428 494.7512498835435 1266.6404479574314 492.47991298788105Q1264.782081406435 490.20857609221855 1261.7306894152925 488.6025803074067Q1258.6563546272241 486.9965845225948 1254.7331363528979 485.8035590824489Q1250.8099180785719 484.6105336423029 1246.7261002257646 483.2798514206017Q1242.6422823729572 481.9491691989004 1238.7190640986312 480.2743450233109Q1234.795845824305 478.5765780507955 1231.7444538331627 476.0069847950965Q1228.69306184202 473.46033433632346 1226.8346952910233 469.6977156404785Q1224.9763287400267 465.93509694463364 1224.9763287400267 460.56648246397685L1224.9763287400267 460.56648246397685Q1224.9763287400267 455.77143790646716 1226.949409275653 451.3664208966975Q1228.9224898112789 446.93846109000197 1232.7309941009755 443.5888127388229Q1236.5394983906722 440.23916438764394 1242.0687124498102 438.2660838520179Q1247.5979265089481 436.29300331639195 1254.710193555972 436.29300331639195L1254.710193555972 436.29300331639195Q1262.96960044929 436.29300331639195 1269.5312403700927 438.8855393690168Q1276.0928802908957 441.4780754216416 1280.8879248484054 446.0207492129666L1280.8879248484054 446.0207492129666ZM1334.4822984672694 436.29300331639195L1334.4822984672694 436.29300331639195Q1342.0075358589595 436.29300331639195 1348.3626906074292 438.7937681813132Q1354.7178453558988 441.3174758431605 1359.3522903349274 446.0666348068184Q1363.96379251703 450.8157937704763 1366.5792713665808 457.7904040359449Q1369.1718074192056 464.7879570983394 1369.1718074192056 473.6897623055823L1369.1718074192056 473.6897623055823Q1369.1718074192056 477.1770674383166 1368.4376379175774 478.3242072846108Q1367.6805256190232 479.471347130905 1365.6156738956936 479.471347130905L1365.6156738956936 479.471347130905L1309.9564485535 479.471347130905Q1310.1170481319812 487.40955486726074 1312.113071464533 493.2829108802869Q1314.086152000159 499.1333240963873 1317.5505143359674 503.0565423707134Q1321.014876671776 506.97976064503945 1325.8099212292857 508.9298983837396Q1330.6049657867952 510.85709332551386 1336.547150190599 510.85709332551386L1336.547150190599 510.85709332551386Q1342.076364249737 510.85709332551386 1346.0913537117665 509.5952394945902Q1350.1063431737964 508.31044286674074 1352.9971355864575 506.8191610665583Q1355.887927999119 505.3278792663759 1357.8151229408934 504.0430826385264Q1359.7652606795934 502.78122880760276 1361.1647712920721 502.78122880760276L1361.1647712920721 502.78122880760276Q1362.977252249217 502.78122880760276 1363.96379251703 504.1807394200817L1363.96379251703 504.1807394200817L1368.093495963689 509.5493539007385Q1365.3862459264349 512.8531166580658 1361.577741636738 515.2850531322094Q1357.7692373470416 517.7169896063531 1353.4330487280492 519.300042594239Q1349.0968601090574 520.860152785199 1344.485357926955 521.6402078806791Q1339.8509129479264 522.4202629761592 1335.3082391566013 522.4202629761592L1335.3082391566013 522.4202629761592Q1326.6358619186174 522.4202629761592 1319.3400524961864 519.5065277665719Q1312.0213002768294 516.5698497600588 1306.6985713900244 510.9029789193656Q1301.3758425032192 505.25905087559823 1298.3932789028545 496.9078727945766Q1295.4107153024897 488.5566947135549 1295.4107153024897 477.7506373614637L1295.4107153024897 477.7506373614637Q1295.4107153024897 468.98648893577615 1298.095022542818 461.39242315330864Q1300.7793297831463 453.7983573708412 1305.8267451068407 448.2232577178514Q1310.8741604305353 442.6481580648617 1318.1240842591144 439.4591092921639Q1325.3969508846196 436.29300331639195 1334.4822984672694 436.29300331639195ZM1334.826440421158 447.09906066848316L1334.826440421158 447.09906066848316Q1324.158039850622 447.09906066848316 1318.0552558683369 453.24773024461996Q1311.929529089126 459.4193426176827 1310.4611900858695 470.3171711574774L1310.4611900858695 470.3171711574774L1355.9567563898966 470.3171711574774Q1355.9567563898966 465.20092744300536 1354.5572457774176 460.93356721479097Q1353.157735164939 456.6891497835025 1350.4275423307588 453.5918721985082Q1347.6973494965785 450.4945946135139 1343.7741312222524 448.7968276409985Q1339.8509129479264 447.09906066848316 1334.826440421158 447.09906066848316ZM1486.615984882804 413.80906232902595L1482.7386522023296 421.4260709084193Q1482.0044827007014 422.66498194241706 1481.1785420113695 423.2844374594159Q1480.3526013220378 423.9038929764148 1479.0219191003366 423.9038929764148L1479.0219191003366 423.9038929764148Q1477.622408487858 423.9038929764148 1475.764041936861 422.48143956700994Q1473.9056753858647 421.08192895453107 1471.060768567055 419.3841619820157Q1468.2158617482453 417.70933780642616 1464.2008722862158 416.28688439702137Q1460.1858828241861 414.8873737845425 1454.496069186567 414.8873737845425L1454.496069186567 414.8873737845425Q1449.1274547059104 414.8873737845425 1444.9977512592511 416.33276999087315Q1440.868047812592 417.7781661972038 1438.0919693845601 420.2559882651992Q1435.338833753454 422.7338103331947 1433.9393231409751 426.0834586843737Q1432.5168697315705 429.4331070355527 1432.5168697315705 433.310439716027L1432.5168697315705 433.310439716027Q1432.5168697315705 438.2660838520179 1434.9717490026399 441.5239610154934Q1437.4036854767837 444.7818381789689 1441.3957321418875 447.09906066848316Q1445.4107216039172 449.4162831579974 1450.4810797245375 451.1140501305128Q1455.5743806420835 452.81181710302815 1460.8971095288887 454.624298060173Q1466.2198384156934 456.43677901731775 1471.3131393332399 458.70811591298025Q1476.38349745386 460.97945280864275 1480.3984869158896 464.4438151444512Q1484.3905335809934 467.9081774802596 1486.822470055137 472.955592803954Q1489.2773493262066 478.00300812764846 1489.2773493262066 485.3447031439312L1489.2773493262066 485.3447031439312Q1489.2773493262066 493.09936850487986 1486.615984882804 499.9133791918673Q1483.9775632363273 506.72738987885475 1478.9072051157073 511.7748052025492Q1473.813904198161 516.8222205262437 1466.4263235880264 519.713012938905Q1459.0387429778918 522.6038053515663 1449.6321962382797 522.6038053515663L1449.6321962382797 522.6038053515663Q1438.137854978412 522.6038053515663 1428.685422644948 518.4282163110554Q1419.2329903114837 514.2526272705446 1412.533693609126 507.1403602235207L1412.533693609126 507.1403602235207L1417.1681385881543 499.5462944410532Q1417.833479699005 498.6515253609437 1418.774134372966 498.03206984394484Q1419.7147890469275 497.41261432694597 1420.8848716901475 497.41261432694597L1420.8848716901475 497.41261432694597Q1422.6055814595886 497.41261432694597 1424.8539755583254 499.2709808779426Q1427.079426860136 501.1293474289392 1430.429075211315 503.3547987307499Q1433.7557807655683 505.58025003256057 1438.5049397292262 507.4386165835572Q1443.254098692884 509.2969831345537 1450.1139949737233 509.2969831345537L1450.1139949737233 509.2969831345537Q1455.8267514082684 509.2969831345537 1460.2776540118896 507.73687294359365Q1464.7285566155113 506.15381995570766 1467.8258342005054 503.30891313689807Q1470.9231117854997 500.46400631808854 1472.5749931641633 496.4949024499106Q1474.226874542827 492.5257985817328 1474.226874542827 487.66192563344543L1474.226874542827 487.66192563344543Q1474.226874542827 482.2933111527887 1471.7949380686835 478.85189161390616Q1469.3630015945396 475.4334148719494 1465.3938977263617 473.1161923824352Q1461.4247938581839 470.798969892921 1456.3544357375636 469.1929741081091Q1451.2840776169435 467.5869783232973 1445.9384059332126 465.88921135078186Q1440.6156770464074 464.19144437826645 1435.5453189257871 461.96599307645573Q1430.4520180082409 459.740541774645 1426.505856936989 456.18440825113305Q1422.536753068811 452.6282747276211 1420.1048165946675 447.3055458408161Q1417.6499373235977 441.98281695401107 1417.6499373235977 434.13638040535886L1417.6499373235977 434.13638040535886Q1417.6499373235977 427.85005404766673 1420.1048165946675 421.9996408315664Q1422.536753068811 416.12628481854017 1427.1482552509137 411.5836110272152Q1431.782700229942 407.0409372358903 1438.5967109169296 404.3107444017101Q1445.4107216039172 401.60349436445586 1454.2436984203823 401.60349436445586L1454.2436984203823 401.60349436445586Q1464.154986692364 401.60349436445586 1472.3455651949046 404.723714746376Q1480.513200900519 407.86687792522207 1486.615984882804 413.80906232902595L1486.615984882804 413.80906232902595ZM1578.54777216482 437.6007427411673L1531.8821232175726 545.9595726221158Q1531.1479537159441 547.6114540007795 1530.023756666576 548.6209370655183Q1528.9225024141335 549.6074773333314 1526.6052799246193 549.6074773333314L1526.6052799246193 549.6074773333314L1515.7074513848245 549.6074773333314L1530.9873541374632 516.4092501815776L1496.4584447640082 437.6007427411673L1509.1687542609477 437.6007427411673Q1511.0730064057961 437.6007427411673 1512.1513178613125 438.56434021205445Q1513.2296293168292 439.50499488601565 1513.7114280522726 440.65213473230983L1513.7114280522726 440.65213473230983L1536.103597851935 493.3517392710646Q1536.8377673535635 495.1642202282094 1537.3883944797847 496.99964398228013Q1537.91607880908 498.8121249394249 1538.3290491537457 500.71637708427323L1538.3290491537457 500.71637708427323Q1538.902619076893 498.8121249394249 1539.4761890000402 496.99964398228013Q1540.072701720113 495.1642202282094 1540.8068712217412 493.2829108802869L1540.8068712217412 493.2829108802869L1562.5336999105532 440.65213473230983Q1563.0154986459968 439.34439530753446 1564.2314668830686 438.4725690243509Q1565.4244923232145 437.6007427411673 1566.8240029356934 437.6007427411673L1566.8240029356934 437.6007427411673L1578.54777216482 437.6007427411673ZM1643.1317455111825 446.0207492129666L1639.8279827538552 451.38936369362335Q1638.8414424860423 453.22478744769404 1636.7765907627124 453.22478744769404L1636.7765907627124 453.22478744769404Q1635.5376797287151 453.22478744769404 1633.977569537755 452.3070755706587Q1632.3945165498687 451.38936369362335 1630.1231796542063 450.28810944118095Q1627.8518427585439 449.1639123918127 1624.7316223766236 448.2232577178514Q1621.5884591977776 447.2596602469643 1617.2981561726376 447.2596602469643L1617.2981561726376 447.2596602469643Q1613.5814230706444 447.2596602469643 1610.5988594702794 448.2232577178514Q1607.6162958699144 449.1639123918127 1605.5285013496593 450.8157937704763Q1603.4177640324779 452.4676751491399 1602.2935669831095 454.67018365402475Q1601.192312730667 456.8497493619837 1601.192312730667 459.4193426176827L1601.192312730667 459.4193426176827Q1601.192312730667 462.6313341873064 1603.0506792816636 464.7879570983394Q1604.9090458326602 466.9216372124466 1607.960437823803 468.5046902003326Q1611.0118298149453 470.0648003912927 1614.8891624954197 471.25782583143865Q1618.766495175894 472.45085127158455 1622.8732558256272 473.82741908713757Q1626.9570736784347 475.1810441057647 1630.8344063589088 476.83292548442836Q1634.711739039383 478.484806863092 1637.7631310305255 480.9626289310874Q1640.8374658185942 483.4404509990829 1642.6958323695906 487.0424701164466Q1644.5541989205874 490.62154643688444 1644.5541989205874 495.66896176057884L1644.5541989205874 495.66896176057884Q1644.5541989205874 501.4505465859015 1642.4893471972575 506.36030512804064Q1640.4244954739281 511.27006367017975 1636.3636204180468 514.8720827875435Q1632.3256881590912 518.4741019049072 1626.452332146065 520.5389536282368Q1620.6019189299648 522.6038053515663 1612.9160819597935 522.6038053515663L1612.9160819597935 522.6038053515663Q1604.151933534106 522.6038053515663 1597.0626092840082 519.7359557358309Q1589.9503422369842 516.8910489170212 1584.9946981009932 512.4401463133997L1584.9946981009932 512.4401463133997L1588.4590604368018 506.8191610665583Q1589.1244015476523 505.74084961104177 1590.0421134246876 505.1672796878947Q1590.936882504797 504.5937097647476 1592.4281643049794 504.5937097647476L1592.4281643049794 504.5937097647476Q1593.919446105162 504.5937097647476 1595.5713274838256 505.74084961104177Q1597.2232088624892 506.9109322542618 1599.5633741489294 508.31044286674074Q1601.9264822322955 509.7099534792197 1605.2761305834745 510.85709332551386Q1608.6257789346535 512.0271759687339 1613.650251461422 512.0271759687339L1613.650251461422 512.0271759687339Q1617.9405544865622 512.0271759687339 1621.1754888531118 510.9029789193656Q1624.3874804227355 509.8017246669232 1626.5441033337686 507.89747252207485Q1628.6777834478758 505.9932203772265 1629.7102093095402 503.51539830923105Q1630.7426351712054 501.0375762412356 1630.7426351712054 498.2385550162778L1630.7426351712054 498.2385550162778Q1630.7426351712054 494.7512498835435 1628.8842686202086 492.47991298788105Q1627.0259020692122 490.20857609221855 1623.9745100780694 488.6025803074067Q1620.9231180869272 486.9965845225948 1616.999899812601 485.8035590824489Q1613.0766815382747 484.6105336423029 1608.9928636854677 483.2798514206017Q1604.9090458326602 481.9491691989004 1600.9858275583342 480.2743450233109Q1597.0626092840082 478.5765780507955 1593.9882744959395 476.0069847950965Q1590.936882504797 473.46033433632346 1589.0785159538007 469.6977156404785Q1587.2201494028038 465.93509694463364 1587.2201494028038 460.56648246397685L1587.2201494028038 460.56648246397685Q1587.2201494028038 455.77143790646716 1589.2161727353557 451.3664208966975Q1591.189253270982 446.93846109000197 1594.9977575606786 443.5888127388229Q1598.7833190534495 440.23916438764394 1604.3125331125873 438.2660838520179Q1609.8646899686512 436.29300331639195 1616.954014218749 436.29300331639195L1616.954014218749 436.29300331639195Q1625.2134211120672 436.29300331639195 1631.77506103287 438.8855393690168Q1638.3596437505987 441.4780754216416 1643.1317455111825 446.0207492129666L1643.1317455111825 446.0207492129666ZM1688.971453769098 522.6038053515663L1688.971453769098 522.6038053515663Q1679.0601654971163 522.6038053515663 1673.7374366103113 517.0516484955024Q1668.4147077235061 511.52243443636445 1668.4147077235061 501.1293474289392L1668.4147077235061 501.1293474289392L1668.4147077235061 449.92102469036683L1658.3428198730433 449.92102469036683Q1657.012137651342 449.92102469036683 1656.1173685712326 449.1180267979609Q1655.1996566941973 448.33797170248084 1655.1996566941973 446.6860903238172L1655.1996566941973 446.6860903238172L1655.1996566941973 440.8356771077169L1668.9194492558756 439.09202454134976L1672.2920404039803 413.23549240587886Q1672.4526399824617 411.9965813718811 1673.3703518594973 411.21652627640105Q1674.2880637365324 410.43647118092105 1675.6875743490114 410.43647118092105L1675.6875743490114 410.43647118092105L1683.1210405529976 410.43647118092105L1683.1210405529976 439.25262411983095L1707.0733205436202 439.25262411983095L1707.0733205436202 449.92102469036683L1683.1210405529976 449.92102469036683L1683.1210405529976 500.1198643642003Q1683.1210405529976 505.41965045407943 1685.6676910117706 507.9663009128525Q1688.2372842674697 510.53589416855147 1692.2752165264253 510.53589416855147L1692.2752165264253 510.53589416855147Q1694.5924390159394 510.53589416855147 1696.2902059884548 509.9164386515526Q1697.9879729609702 509.2969831345537 1699.2268839949681 508.5628136329255Q1700.4657950289657 507.8057013343713 1701.3376213121494 507.1862458173724Q1702.1865047984068 506.5667903003736 1702.8518459092575 506.5667903003736L1702.8518459092575 506.5667903003736Q1704.0219285524774 506.5667903003736 1704.916697632587 507.9663009128525L1704.916697632587 507.9663009128525L1709.2070006577273 514.986796772173Q1705.4214391649566 518.5429302956849 1700.0528246842998 520.5618964251626Q1694.6842102036428 522.6038053515663 1688.971453769098 522.6038053515663ZM1758.3504716729701 436.29300331639195L1758.3504716729701 436.29300331639195Q1765.8757090646598 436.29300331639195 1772.2308638131296 438.7937681813132Q1778.5860185615995 441.3174758431605 1783.220463540628 446.0666348068184Q1787.8549085196566 450.8157937704763 1790.4474445722815 457.7904040359449Q1793.0399806249063 464.7879570983394 1793.0399806249063 473.6897623055823L1793.0399806249063 473.6897623055823Q1793.0399806249063 477.1770674383166 1792.3058111232779 478.3242072846108Q1791.5716416216499 479.471347130905 1789.5067898983204 479.471347130905L1789.5067898983204 479.471347130905L1733.8246217592007 479.471347130905Q1733.9852213376819 487.40955486726074 1735.9812446702333 493.2829108802869Q1737.9543252058595 499.1333240963873 1741.4186875416679 503.0565423707134Q1744.9059926744023 506.97976064503945 1749.678094434986 508.9298983837396Q1754.4731389924957 510.85709332551386 1760.4153233963 510.85709332551386L1760.4153233963 510.85709332551386Q1765.9674802523634 510.85709332551386 1769.9595269174672 509.5952394945902Q1773.9745163794971 508.31044286674074 1776.8653087921582 506.8191610665583Q1779.7561012048197 505.3278792663759 1781.683296146594 504.0430826385264Q1783.6334338852942 502.78122880760276 1785.0329444977726 502.78122880760276L1785.0329444977726 502.78122880760276Q1786.8454254549176 502.78122880760276 1787.8549085196566 504.1807394200817L1787.8549085196566 504.1807394200817L1791.9846119663155 509.5493539007385Q1789.2544191321356 512.8531166580658 1785.4459148424387 515.2850531322094Q1781.660353349668 517.7169896063531 1777.324164730676 519.300042594239Q1772.9879761116838 520.860152785199 1768.3535311326557 521.6402078806791Q1763.7190861536271 522.4202629761592 1759.1764123623018 522.4202629761592L1759.1764123623018 522.4202629761592Q1750.504035124318 522.4202629761592 1743.2082257018872 519.5065277665719Q1735.88947348253 516.5698497600588 1730.5667445957254 510.9029789193656Q1725.2440157089197 505.25905087559823 1722.261452108555 496.9078727945766Q1719.3018313051161 488.5566947135549 1719.3018313051161 477.7506373614637L1719.3018313051161 477.7506373614637Q1719.3018313051161 468.98648893577615 1721.9861385454444 461.39242315330864Q1724.670445785773 453.7983573708412 1729.6949183125414 448.2232577178514Q1734.742333636236 442.6481580648617 1742.0152002617408 439.4591092921639Q1749.2651240903203 436.29300331639195 1758.3504716729701 436.29300331639195ZM1758.6946136268582 447.09906066848316L1758.6946136268582 447.09906066848316Q1748.0262130563226 447.09906066848316 1741.9234290740376 453.24773024461996Q1735.820645091752 459.4193426176827 1734.32936329157 470.3171711574774L1734.32936329157 470.3171711574774L1779.8249295955973 470.3171711574774Q1779.8249295955973 465.20092744300536 1778.4254189831183 460.93356721479097Q1777.0259083706394 456.6891497835025 1774.2957155364595 453.5918721985082Q1771.5655227022792 450.4945946135139 1767.642304427953 448.7968276409985Q1763.7190861536271 447.09906066848316 1758.6946136268582 447.09906066848316ZM1826.4905785428448 521.2731231298651L1811.8071885102793 521.2731231298651L1811.8071885102793 437.6007427411673L1820.5483941390405 437.6007427411673Q1823.691557317887 437.6007427411673 1824.5174980072186 440.65213473230983L1824.5174980072186 440.65213473230983L1825.5958094627351 449.2556835795162Q1830.2073116448375 443.54292714497115 1835.9659536732345 439.91796523068155Q1841.7016529047057 436.29300331639195 1849.295718687173 436.29300331639195L1849.295718687173 436.29300331639195Q1857.8074963466759 436.29300331639195 1863.0384540457774 440.9962766861981Q1868.292354541805 445.6995500560042 1870.6095770313188 453.70658618313763L1870.6095770313188 453.70658618313763Q1872.3302868007602 449.1639123918127 1875.1981364164956 445.8601496344854Q1878.0430432353053 442.55638687715816 1881.5991767588173 440.422706763051Q1885.1323674854032 438.2660838520179 1889.1473569474326 437.27954358420493Q1893.1623464094625 436.29300331639195 1897.2920498561214 436.29300331639195L1897.2920498561214 436.29300331639195Q1903.8995753707761 436.29300331639195 1909.0617046791 438.38079783664733Q1914.2238339874236 440.49153515382864 1917.8029103078613 444.55241020971005Q1921.4049294252252 448.5903424686656 1923.3091815700734 454.4866412786177Q1925.190490917996 460.40588288549566 1925.190490917996 467.99994866796317L1925.190490917996 467.99994866796317L1925.190490917996 521.2731231298651L1910.5071008854304 521.2731231298651L1910.5071008854304 467.99994866796317Q1910.5071008854304 458.18043158368494 1906.1938550633647 453.08713066613876Q1901.9035520382242 448.0167725455185 1893.7359163326093 448.0167725455185L1893.7359163326093 448.0167725455185Q1890.0880116213941 448.0167725455185 1886.8301344579183 449.30156917336797Q1883.572257294443 450.56342300429156 1881.0944352264476 453.04124507228704Q1878.6166131584525 455.51906714028246 1877.1712169521213 459.28168583612734Q1875.725820745791 463.0443045319723 1875.725820745791 467.99994866796317L1875.725820745791 467.99994866796317L1875.725820745791 521.2731231298651L1861.0194879162993 521.2731231298651L1861.0194879162993 467.99994866796317Q1861.0194879162993 457.92806081750024 1856.9815556573437 452.97241668150934Q1852.9206806014624 448.0167725455185 1845.166015240514 448.0167725455185L1845.166015240514 448.0167725455185Q1839.7056295721534 448.0167725455185 1835.0482417961991 450.9534505520316Q1830.390854020245 453.8671857616188 1826.4905785428448 458.9146010853132L1826.4905785428448 458.9146010853132L1826.4905785428448 521.2731231298651ZM1998.6303838777496 446.0207492129666L1995.3266211204225 451.38936369362335Q1994.3400808526096 453.22478744769404 1992.2752291292798 453.22478744769404L1992.2752291292798 453.22478744769404Q1991.0363180952825 453.22478744769404 1989.4532651073962 452.3070755706587Q1987.8931549164365 451.38936369362335 1985.6218180207736 450.28810944118095Q1983.3504811251112 449.1639123918127 1980.2073179462652 448.2232577178514Q1977.0641547674193 447.2596602469643 1972.7738517422788 447.2596602469643L1972.7738517422788 447.2596602469643Q1969.0571186402856 447.2596602469643 1966.0745550399208 448.2232577178514Q1963.1149342364818 449.1639123918127 1961.0041969193005 450.8157937704763Q1958.8934596021193 452.4676751491399 1957.792205349677 454.67018365402475Q1956.6680083003087 456.8497493619837 1956.6680083003087 459.4193426176827L1956.6680083003087 459.4193426176827Q1956.6680083003087 462.6313341873064 1958.526374851305 464.7879570983394Q1960.3847414023019 466.9216372124466 1963.4361333934442 468.5046902003326Q1966.487525384587 470.0648003912927 1970.387800861987 471.25782583143865Q1974.265133542461 472.45085127158455 1978.3489513952684 473.82741908713757Q1982.4327692480758 475.1810441057647 1986.3101019285502 476.83292548442836Q1990.2103774059503 478.484806863092 1993.261769397093 480.9626289310874Q1996.3131613882354 483.4404509990829 1998.1715279392317 487.0424701164466Q2000.0298944902286 490.62154643688444 2000.0298944902286 495.66896176057884L2000.0298944902286 495.66896176057884Q2000.0298944902286 501.4505465859015 1997.9650427668992 506.36030512804064Q1995.9001910435693 511.27006367017975 1991.8622587846141 514.8720827875435Q1987.8013837287324 518.4741019049072 1981.9509705126322 520.5389536282368Q1976.077614499606 522.6038053515663 1968.391777529435 522.6038053515663L1968.391777529435 522.6038053515663Q1959.6505719006734 522.6038053515663 1952.5383048536494 519.7359557358309Q1945.4260378066253 516.8910489170212 1940.4703936706348 512.4401463133997L1940.4703936706348 512.4401463133997L1943.9576988033689 506.8191610665583Q1944.6000971172937 505.74084961104177 1945.517808994329 505.1672796878947Q1946.4355208713644 504.5937097647476 1947.9038598746208 504.5937097647476L1947.9038598746208 504.5937097647476Q1949.3951416748034 504.5937097647476 1951.0470230534668 505.74084961104177Q1952.6989044321306 506.9109322542618 1955.0620125154967 508.31044286674074Q1957.4021778019367 509.7099534792197 1960.7518261531156 510.85709332551386Q1964.1014745042946 512.0271759687339 1969.1488898279893 512.0271759687339L1969.1488898279893 512.0271759687339Q1973.4391928531293 512.0271759687339 1976.6511844227527 510.9029789193656Q1979.8861187893028 509.8017246669232 1982.0197989034098 507.89747252207485Q1984.1764218144433 505.9932203772265 1985.2088476761076 503.51539830923105Q1986.2412735377727 501.0375762412356 1986.2412735377727 498.2385550162778L1986.2412735377727 498.2385550162778Q1986.2412735377727 494.7512498835435 1984.3829069867759 492.47991298788105Q1982.5245404357795 490.20857609221855 1979.4731484446368 488.6025803074067Q1976.3988136565683 486.9965845225948 1972.4755953822425 485.8035590824489Q1968.5523771079163 484.6105336423029 1964.4685592551089 483.2798514206017Q1960.3847414023019 481.9491691989004 1956.4615231279756 480.2743450233109Q1952.5383048536494 478.5765780507955 1949.486912862507 476.0069847950965Q1946.4355208713644 473.46033433632346 1944.577154320368 469.6977156404785Q1942.7187877693711 465.93509694463364 1942.7187877693711 460.56648246397685L1942.7187877693711 460.56648246397685Q1942.7187877693711 455.77143790646716 1944.6918683049973 451.3664208966975Q1946.6649488406235 446.93846109000197 1950.47345313032 443.5888127388229Q1954.2819574200164 440.23916438764394 1959.8111714791546 438.2660838520179Q1965.3403855382924 436.29300331639195 1972.4526525853164 436.29300331639195L1972.4526525853164 436.29300331639195Q1980.712059478635 436.29300331639195 1987.273699399437 438.8855393690168Q1993.8353393202399 441.4780754216416 1998.6303838777496 446.0207492129666L1998.6303838777496 446.0207492129666Z " fill="#fad744" transform="matrix(0.43749344899092557,0,0,0.43749344899092557,0,92.36234686929687)"/></g></svg>